<svg id="Layer_1" data-name="Layer 1" xmlns="http://www.w3.org/2000/svg" xmlns:xlink="http://www.w3.org/1999/xlink" viewBox="0 0 1745.24 120">
  <defs>
    <style>
      .cls-1 {
        fill: none;
      }

      .cls-2, .cls-3 {
        fill: #95908f;
      }

      .cls-3 {
        fill-rule: evenodd;
      }

      .cls-4 {
        clip-path: url(#clip-path);
      }

      .cls-5 {
        clip-path: url(#clip-path-2);
      }

      .cls-6 {
        clip-path: url(#clip-path-3);
      }

      .cls-7 {
        clip-path: url(#clip-path-5);
      }

      .cls-8 {
        clip-path: url(#clip-path-6);
      }

      .cls-9 {
        clip-path: url(#clip-path-8);
      }

      .cls-10 {
        clip-path: url(#clip-path-9);
      }
    </style>
    <clipPath id="clip-path">
      <rect class="cls-1" x="639.37" y="26.96" width="65.56" height="65.56"/>
    </clipPath>
    <clipPath id="clip-path-2">
      <rect class="cls-1" x="836.01" y="25.29" width="82.29" height="68.42"/>
    </clipPath>
    <clipPath id="clip-path-3">
      <rect class="cls-1" x="836.01" y="9.89" width="82.29" height="99.21"/>
    </clipPath>
    <clipPath id="clip-path-5">
      <rect class="cls-1" x="1237.6" y="36.26" width="99.98" height="45.76"/>
    </clipPath>
    <clipPath id="clip-path-6">
      <rect class="cls-1" x="1217.72" y="17.75" width="139.09" height="84.46"/>
    </clipPath>
    <clipPath id="clip-path-8">
      <rect class="cls-1" x="1457" y="35.79" width="71.6" height="47.41"/>
    </clipPath>
    <clipPath id="clip-path-9">
      <rect class="cls-1" x="1439.07" y="15.43" width="107.45" height="88.14"/>
    </clipPath>
  </defs>
  <rect class="cls-1" width="159.15" height="120"/>
  <g>
    <path class="cls-2" d="M48.65,65a9.1,9.1,0,1,1-9.1-9.1A9,9,0,0,1,48.65,65Zm-3.9,0a5.11,5.11,0,1,0-10.2,0,5.11,5.11,0,1,0,10.2,0Z"/>
    <path class="cls-2" d="M68.35,65a9.1,9.1,0,1,1-9.1-9.1A9,9,0,0,1,68.35,65Zm-4,0a5.11,5.11,0,1,0-10.2,0,5.11,5.11,0,1,0,10.2,0Z"/>
    <path class="cls-2" d="M87.15,56.4V72.7c0,6.7-4,9.4-8.6,9.4a8.63,8.63,0,0,1-8.1-5.4L74,75.3a4.92,4.92,0,0,0,4.6,3.2c3,0,4.8-1.8,4.8-5.3V72h-.1a6.21,6.21,0,0,1-4.8,2.1,9.06,9.06,0,0,1,0-18.1,6.52,6.52,0,0,1,4.8,2h.1V56.5l3.8-.1ZM83.65,65c0-3.2-2.1-5.5-4.8-5.5a5.52,5.52,0,0,0,0,11C81.55,70.5,83.65,68.2,83.65,65Z"/>
    <path class="cls-2" d="M93.45,46.9V73.5h-3.9V46.9Z"/>
    <path class="cls-2" d="M108.55,67.9l3.1,2.1a9,9,0,0,1-7.6,4,8.86,8.86,0,0,1-9-9.1c0-5.4,3.9-9.1,8.6-9.1s7,3.8,7.8,5.8l.4,1-12.1,5a5,5,0,0,0,8.8.3Zm-9.5-3.2,8.1-3.4a3.53,3.53,0,0,0-3.4-1.9A5,5,0,0,0,99.05,64.7Z"/>
    <path class="cls-2" d="M15.75,62.6V58.7h13A16.41,16.41,0,0,1,29,61a12.78,12.78,0,0,1-3.3,9,12.8,12.8,0,0,1-9.8,4,14.1,14.1,0,1,1,0-28.2,13.53,13.53,0,0,1,9.7,3.9l-2.7,2.7a10.23,10.23,0,1,0-7,17.8A9.43,9.43,0,0,0,23,67.4a7.94,7.94,0,0,0,2.1-4.8Z"/>
  </g>
  <rect class="cls-1" x="159.15" width="205" height="120"/>
  <path class="cls-3" d="M274.42,76.9C268.11,81.56,259,84,251.07,84a42.32,42.32,0,0,1-28.53-10.88c-.59-.54-.06-1.27.65-.85a57.48,57.48,0,0,0,28.54,7.57,56.63,56.63,0,0,0,21.78-4.46C274.57,75,275.51,76.13,274.42,76.9Z"/>
  <path class="cls-3" d="M277.05,73.9c-.81-1-5.34-.49-7.37-.25-.62.08-.71-.46-.16-.85,3.62-2.54,9.54-1.81,10.23-1s-.19,6.8-3.57,9.63c-.52.44-1,.2-.79-.37.76-1.9,2.47-6.17,1.66-7.2Z"/>
  <path class="cls-3" d="M269.84,54.86V52.4a.61.61,0,0,1,.59-.63h11a.62.62,0,0,1,.64.6v2.14a3.45,3.45,0,0,1-.83,1.55l-5.73,8.18a12.35,12.35,0,0,1,6.31,1.35,1.15,1.15,0,0,1,.58,1v2.63c0,.36-.39.78-.81.56a12.74,12.74,0,0,0-11.68,0c-.39.21-.79-.21-.79-.57V66.7a3,3,0,0,1,.41-1.7l6.64-9.52h-5.78a.62.62,0,0,1-.64-.6v0Z"/>
  <path class="cls-3" d="M229.49,70.27h-3.37a.63.63,0,0,1-.6-.57V52.44a.62.62,0,0,1,.64-.62h3.15a.64.64,0,0,1,.61.58v2.3H230a4.45,4.45,0,0,1,4.43-3.2c2.1,0,3.42,1,4.36,3.2a5,5,0,0,1,8.54-1.31c1.07,1.45.85,3.56.85,5.41V69.7a.64.64,0,0,1-.65.62h-3.36a.63.63,0,0,1-.6-.62V60.5a21.93,21.93,0,0,0-.1-3.24,1.74,1.74,0,0,0-2-1.49h0a2.25,2.25,0,0,0-2,1.42,10.55,10.55,0,0,0-.31,3.31v9.2a.64.64,0,0,1-.65.62h-3.35a.63.63,0,0,1-.6-.62V60.5c0-1.93.32-4.76-2.07-4.76s-2.33,2.76-2.33,4.76v9.2a.64.64,0,0,1-.65.62Z"/>
  <path class="cls-3" d="M291.69,55c-2.48,0-2.64,3.37-2.64,5.48s0,6.61,2.61,6.61,2.73-3.63,2.73-5.84a16.06,16.06,0,0,0-.5-4.58A2.1,2.1,0,0,0,291.69,55Zm0-3.53c5,0,7.69,4.29,7.69,9.74,0,5.27-3,9.44-7.69,9.44-4.9,0-7.57-4.28-7.57-9.62S286.82,51.45,291.69,51.45Z"/>
  <path class="cls-3" d="M305.84,70.27h-3.35a.63.63,0,0,1-.65-.57V52.38a.62.62,0,0,1,.64-.56h3.12a.62.62,0,0,1,.6.48v2.64h.06c1-2.36,2.26-3.49,4.59-3.49a4.41,4.41,0,0,1,3.92,2c.88,1.38.88,3.7.88,5.37V69.7a.63.63,0,0,1-.64.54h-3.37a.62.62,0,0,1-.6-.54V60.35c0-1.89.22-4.65-2.11-4.65A2.2,2.2,0,0,0,307,57.08a7.62,7.62,0,0,0-.54,3.27V69.7a.64.64,0,0,1-.65.62Z"/>
  <path class="cls-3" d="M264.4,70.23a.71.71,0,0,1-.8.08,8.29,8.29,0,0,1-1.92-2.25,6.68,6.68,0,0,1-5.55,2.45c-2.83,0-5-1.75-5-5.24a5.71,5.71,0,0,1,3.59-5.5,21.66,21.66,0,0,1,6.33-1.17v-.43a4.37,4.37,0,0,0-.41-2.44,2.28,2.28,0,0,0-1.89-.88,2.56,2.56,0,0,0-2.7,2,.7.7,0,0,1-.59.62l-3.26-.35a.59.59,0,0,1-.51-.66s0,0,0-.05c.75-3.95,4.32-5.15,7.52-5.15a7.63,7.63,0,0,1,5.07,1.68c1.63,1.53,1.48,3.57,1.48,5.79V64A4.55,4.55,0,0,0,267,67.09a.64.64,0,0,1,0,.89c-.69.58-1.91,1.64-2.58,2.24ZM261,62a6.53,6.53,0,0,1-.63,3.56,2.74,2.74,0,0,1-2.33,1.53c-1.29,0-2-1-2-2.44,0-2.86,2.57-3.38,5-3.38V62Z"/>
  <path class="cls-3" d="M220.3,70.23a.7.7,0,0,1-.79.08,8.15,8.15,0,0,1-1.93-2.25A6.68,6.68,0,0,1,212,70.51c-2.83,0-5-1.75-5-5.24a5.73,5.73,0,0,1,3.58-5.5,21.66,21.66,0,0,1,6.33-1.17v-.43a4.3,4.3,0,0,0-.44-2.47,2.28,2.28,0,0,0-1.89-.88,2.56,2.56,0,0,0-2.7,2,.7.7,0,0,1-.59.62l-3.26-.35a.59.59,0,0,1-.51-.66s0,0,0,0c.75-4,4.32-5.15,7.52-5.15a7.63,7.63,0,0,1,5.07,1.68c1.64,1.53,1.48,3.57,1.48,5.79v5.24a4.55,4.55,0,0,0,1.27,3.12.64.64,0,0,1,0,.89c-.69.58-1.91,1.64-2.58,2.24ZM216.91,62a6.53,6.53,0,0,1-.63,3.56A2.72,2.72,0,0,1,214,67.12c-1.29,0-2-1-2-2.44,0-2.86,2.57-3.38,5-3.38V62Z"/>
  <rect class="cls-1" x="364.15" width="205" height="120"/>
  <path class="cls-2" d="M507.25,76.66h-3.53a2.19,2.19,0,0,0-.52-1.23,2.59,2.59,0,0,0-1.91-.58,2.89,2.89,0,0,0-1.83.44,1.19,1.19,0,0,0-.39.9c0,.54.75,1,2.22,1.3a37.12,37.12,0,0,1,3.63.93c.2.08.37.14.49.2a3.4,3.4,0,0,1,2.24,3.22,4.07,4.07,0,0,1-2.18,3.84l-.55.27a8.24,8.24,0,0,1-3.26.6,9,9,0,0,1-4.46-1A4.35,4.35,0,0,1,495.6,84a4.49,4.49,0,0,1-.54-2.21h3.71a1.76,1.76,0,0,0,.68,1.48,3.88,3.88,0,0,0,2.3.53,2.78,2.78,0,0,0,1.83-.51,1.11,1.11,0,0,0,.47-.9c0-.57-.73-1-2.19-1.34a24.25,24.25,0,0,1-4.09-1.11,3.4,3.4,0,0,1-2.22-3.26,4.28,4.28,0,0,1,1.16-3,5.74,5.74,0,0,1,4.37-1.55,9.15,9.15,0,0,1,3.84.68l.24.13a3.78,3.78,0,0,1,1.57,1.5,4.34,4.34,0,0,1,.52,2.23Z"/>
  <path class="cls-2" d="M505.65,67.66a.57.57,0,0,1,.11.33.6.6,0,0,1-.19.44.73.73,0,0,1-.47.21.52.52,0,0,1,.19.12l.34.45.27.45h-.44l-.21-.37a1.61,1.61,0,0,0-.34-.48,0,0,0,0,0-.05,0l-.29-.08h-.22v1H504V67.37h.92a1.61,1.61,0,0,1,.44.06.61.61,0,0,1,.3.22Zm-.3.37a.26.26,0,0,0-.05-.19.23.23,0,0,0-.15-.12h-.8v.69h.56a.48.48,0,0,0,.33-.1.26.26,0,0,0,.11-.24Z"/>
  <path class="cls-2" d="M507.05,68.5a2.05,2.05,0,0,1-.29,1,1.81,1.81,0,0,1-.77.78,2.14,2.14,0,0,1-1.05.28h0a2.09,2.09,0,0,1-1-.28,1.78,1.78,0,0,1-.78-.78,2.16,2.16,0,0,1,0-2.12,2,2,0,0,1,.79-.78,2.21,2.21,0,0,1,1-.28h0a2,2,0,0,1,1,.28,1.8,1.8,0,0,1,.79.78A2,2,0,0,1,507.05,68.5Zm-.4,0a1.75,1.75,0,0,0-.89-1.55,2,2,0,0,0-.86-.23h0A2,2,0,0,0,504,67a1.82,1.82,0,0,0-.9,1.55,1.93,1.93,0,0,0,.24.88A1.67,1.67,0,0,0,504,70a1.7,1.7,0,0,0,.87.24h0a1.65,1.65,0,0,0,.87-.24,1.72,1.72,0,0,0,.88-1.52Z"/>
  <polygon class="cls-2" points="486.31 51.27 496.32 67.94 486.31 67.94 480.24 67.94 470.68 52.01 463.45 39.95 470.68 35.6 475.24 32.86 486.31 51.27 486.31 51.27"/>
  <path class="cls-2" d="M490.25,80.28V78.77a4,4,0,0,0-3.9-3.22h0a4,4,0,0,0,0,8h0a4,4,0,0,0,3.9-3.23Zm3.33-.76v6.84h-3.33V85.6a7.1,7.1,0,0,1-3.9,1.16h0a7.24,7.24,0,0,1,0-14.48h0a7.1,7.1,0,0,1,3.9,1.16v-.79h3.33v6.87Z"/>
  <path class="cls-2" d="M474.65,80.28V78.77a4,4,0,0,0-3.9-3.22h0a4,4,0,0,0,0,8h0a4,4,0,0,0,3.9-3.23Zm3.3-.78v6.84h-3.3V85.6a7.1,7.1,0,0,1-3.9,1.16h0a7.24,7.24,0,0,1,0-14.48h0a7.1,7.1,0,0,1,3.9,1.16v-5.5H478V79.5Z"/>
  <polygon class="cls-2" points="470.68 61.38 474.61 67.94 470.68 67.94 458.54 67.94 449.62 53.1 449.23 52.45 449.62 52.22 461.04 45.34 470.68 61.38 470.68 61.38"/>
  <polygon class="cls-2" points="458.56 72.28 462.18 72.28 462.18 86.36 458.56 86.36 458.56 72.28 458.56 72.28"/>
  <polygon class="cls-2" points="458.56 68.01 462.18 68.01 462.18 71.19 458.56 71.19 458.56 68.01 458.56 68.01"/>
  <path class="cls-2" d="M453.57,80.28V78.77a4,4,0,0,0-3.92-3.22h0a4,4,0,0,0,0,8h0a4,4,0,0,0,3.91-3.23Zm3.33-.78v6.84h-3.33V85.6a7.14,7.14,0,0,1-3.92,1.16h0a7.24,7.24,0,1,1,0-14.48h0a7.13,7.13,0,0,1,3.91,1.16v-5.5h3.33V79.5Z"/>
  <polygon class="cls-2" points="449.62 62.46 452.91 67.94 449.62 67.94 436.84 67.94 435.03 64.93 446.84 57.84 449.62 62.46 449.62 62.46"/>
  <path class="cls-2" d="M437.79,80.28V78.77a4,4,0,0,0-3.92-3.22h0a4,4,0,0,0,0,8h0a4,4,0,0,0,3.92-3.23Zm3.32-.78v6.84h-3.32V85.6a7.16,7.16,0,0,1-3.92,1.16h0a7.24,7.24,0,0,1,0-14.48h0a7.16,7.16,0,0,1,3.92,1.16v-.79h3.32Z"/>
  <rect class="cls-1" x="569.15" width="205" height="120"/>
  <g class="cls-4">
    <path class="cls-2" d="M672.15,30.5a29.24,29.24,0,1,0,20.67,8.56,29.22,29.22,0,0,0-20.67-8.56m0-3.55a32.78,32.78,0,1,1-32.78,32.79A32.78,32.78,0,0,1,672.15,27h0"/>
  </g>
  <path class="cls-2" d="M656.65,59.5a2.81,2.81,0,0,0-2.62-3h-1.48v6h1.07a2.82,2.82,0,0,0,3-2.6,2.67,2.67,0,0,0,0-.4m19.55,2.16L668.1,68l-7.45-5.84a7.11,7.11,0,0,1-6.57,4.32h-6.33V52.44h6.33a7.06,7.06,0,0,1,6.57,4.35l7.4-5.82,2.75,2.16-6.74,5.37,1.29,1,6.79-5.33,2.74,2.15-6.78,5.34,1.3,1,6.79-5.33V52.44h4.92v10H686V66.5h-9.82V61.66Zm16,.77h4.9V66.5h-9.83V52.44h4.93v10Z"/>
  <rect class="cls-1" x="774.15" width="205" height="120"/>
  <g class="cls-5">
    <g class="cls-6">
      <g class="cls-6">
        <g>
          <path class="cls-2" d="M877.85,73.12l6.69-37.62c6.37,0,8.38.7,8.67,3.55,0,0,4.28-1.59,6.44-4.83a47.29,47.29,0,0,0-16.87-4.08l-4.94,6h0l-4.93-6a47.53,47.53,0,0,0-16.86,4.1c2.16,3.24,6.43,4.83,6.43,4.83.3-2.85,2.3-3.55,8.63-3.56Z"/>
          <path class="cls-2" d="M877.85,28.43A55.34,55.34,0,0,1,900.41,33a16.74,16.74,0,0,0,1.34-2.76,63.65,63.65,0,0,0-47.8,0A25.09,25.09,0,0,0,855.29,33a55.37,55.37,0,0,1,22.56-4.52Z"/>
          <path class="cls-2" d="M863.84,88h5.09a1.9,1.9,0,0,0,1.39-1.37h-7.86A1.91,1.91,0,0,0,863.84,88"/>
          <path class="cls-2" d="M863.84,90.69h5.09a1.9,1.9,0,0,0,1.39-1.37h-7.86a1.91,1.91,0,0,0,1.38,1.37"/>
          <path class="cls-2" d="M863.84,93.5h5.09a1.86,1.86,0,0,0,1.39-1.37h-7.86a1.87,1.87,0,0,0,1.38,1.37"/>
          <path class="cls-2" d="M896.65,88h5.09a1.85,1.85,0,0,0,1.38-1.37h-7.86A1.9,1.9,0,0,0,896.65,88"/>
          <path class="cls-2" d="M850.65,86.64A1.92,1.92,0,0,0,852,88h2.25v5.5h1.34V88h2.26a2,2,0,0,0,1.38-1.36h-8.61Z"/>
          <path class="cls-2" d="M891.46,93.5a1.89,1.89,0,0,0,1.19-1.38h-6V86.63h-1.3V93.5Z"/>
          <path class="cls-2" d="M875.45,88h4.71a2,2,0,0,0,1.49-1.34h-7.52v4h6.12v1.42h-4.8a2.74,2.74,0,0,0-1.71,1.45h7.82V89.32h-6.11Z"/>
          <polygon class="cls-2" points="895.47 89.33 895.47 93.46 896.79 93.46 896.79 90.71 901.61 90.71 901.61 93.46 902.94 93.46 902.94 89.34 895.47 89.33"/>
        </g>
      </g>
    </g>
  </g>
  <rect class="cls-1" x="979.15" width="205" height="120"/>
  <path class="cls-2" d="M1056.79,37.94a21.26,21.26,0,0,1,18,.21,20.75,20.75,0,0,1,9.19,8.64c-1.29.66-2.59,1.29-3.88,1.94a19.55,19.55,0,0,0-25.65-8,20.89,20.89,0,0,0-7.09,6,21.4,21.4,0,0,1,9.39-8.72Z"/>
  <path class="cls-2" d="M1052.82,49.55a15.29,15.29,0,0,1,12.67-7.16,14.8,14.8,0,0,1,12.65,7.33l-3.86,1.91a13.53,13.53,0,0,0-11.21-6.57A13.88,13.88,0,0,0,1052.82,49.55Z"/>
  <path class="cls-2" d="M1041.54,47.28q12,6,23.92,12l23.92-12v3.37l-23.92,12-23.92-12C1041.55,49.5,1041.55,48.4,1041.54,47.28Z"/>
  <path class="cls-2" d="M1058.65,52.5c1.47-2,3.61-3.78,6.21-3.94a8,8,0,0,1,7.43,4.07l-3.86,1.87a7.12,7.12,0,0,0-5.33-3.42A6.89,6.89,0,0,0,1058.65,52.5Z"/>
  <path class="cls-2" d="M1108.36,62.06h5V83.25h-5Zm-24,0h5V65.9h-5c0-1.28,0-2.56,0-3.84Zm-34.25,5.79h5V77a2.32,2.32,0,0,0,1.66,2.53,2.81,2.81,0,0,0,3.48-1.93,2.35,2.35,0,0,0,.09-.53c.18-3.05,0-6.11.08-9.16h5v15.4h-4.85V81.14a6.17,6.17,0,0,1-4.12,2.53,5.86,5.86,0,0,1-4.93-1.45,7.2,7.2,0,0,1-1.43-4.63V67.88Zm34.24,0h5V83.26h-5V67.86Zm46.43,8.92a10,10,0,0,0-2.07-6.84c-3-3.39-8.74-3.28-11.88-.21a8.52,8.52,0,0,0-.21,11.7c2.53,2.43,6.53,2.79,9.73,1.65a6.74,6.74,0,0,0,4.18-4.46h-4.66a3.57,3.57,0,0,1-4.91,1.15,3.75,3.75,0,0,1-.51-.38,4.69,4.69,0,0,1-1.09-2.6h11.42Zm-11.4-2.83a5.61,5.61,0,0,1,1-2.14,3,3,0,0,1,4.11-.37,4.16,4.16,0,0,1,1.29,2.5c-2.13,0-4.27,0-6.4,0Zm-41.92-11.88v7.47a6,6,0,0,0-8.09-1,8,8,0,0,0-2.86,6.06,10.18,10.18,0,0,0,2,6.91,6.31,6.31,0,0,0,6.71,1.89,6,6,0,0,0,2.55-2v1.82h4.78V62Zm-.37,16.32a2.77,2.77,0,0,1-3.74,1.16,2.89,2.89,0,0,1-.64-.46,5.76,5.76,0,0,1-1.15-4.26,3.77,3.77,0,0,1,1.89-3.32,2.78,2.78,0,0,1,3.56,1.16A7,7,0,0,1,1077.09,78.38Zm27.67-9.45a6,6,0,0,0-8.47.5l-.11.13v-7.5h-5v21.2H1096V81.45a6,6,0,0,0,2.69,2,6.36,6.36,0,0,0,6.07-1.48,9.36,9.36,0,0,0,2.4-6.53A8.58,8.58,0,0,0,1104.76,68.93Zm-2.69,7.48a4.5,4.5,0,0,1-1.24,2.81,2.8,2.8,0,0,1-3.95-.35,2.26,2.26,0,0,1-.23-.31,7.26,7.26,0,0,1-.61-3.68,3.69,3.69,0,0,1,2-3.44,2.76,2.76,0,0,1,3.13.74,5.75,5.75,0,0,1,.88,4.23Zm-53.52-.91c-.09-1.8.28-3.71-.53-5.39s-2.73-2.39-4.47-2.61c-2.48-.24-5.2-.23-7.38,1.15a5.08,5.08,0,0,0-2.14,3.89h4.62c.33-.67.65-1.46,1.41-1.72a3.51,3.51,0,0,1,3.19.39,1.34,1.34,0,0,1-.4,2.33c-2.22.6-4.62.47-6.76,1.39a3.88,3.88,0,0,0-2.44,2.93,5.33,5.33,0,0,0,.78,4.09,5.67,5.67,0,0,0,4.94,1.71,7.22,7.22,0,0,0,4.47-1.82c.08.46.17.94.27,1.41h5c-.88-2.5-.45-5.19-.55-7.79Zm-5.44,4c-.76,1.17-2.42,1.28-3.64.88a1.74,1.74,0,0,1-.81-2.32,1.77,1.77,0,0,1,.7-.76c1.38-.68,3-.73,4.41-1.21A7.3,7.3,0,0,1,1043.11,79.5Z"/>
  <rect class="cls-1" x="1184.15" width="205" height="120"/>
  <g class="cls-7">
    <g class="cls-8">
      <g>
        <polygon class="cls-3" points="1302.4 38.85 1302.4 36.26 1292.04 36.26 1292.04 50.48 1302.4 50.48 1302.4 48.14 1294.93 48.14 1294.93 44.28 1301.48 44.28 1301.48 41.73 1294.93 41.73 1294.93 38.85 1302.4 38.85"/>
        <polygon class="cls-3" points="1299.52 51.95 1299.52 57.42 1293.85 57.42 1293.85 51.95 1290.92 51.95 1290.92 66.12 1293.85 66.12 1293.85 59.77 1299.52 59.77 1299.52 66.12 1302.4 66.12 1302.4 51.95 1299.52 51.95"/>
        <polygon class="cls-3" points="1302.4 70.13 1302.4 67.59 1292.04 67.59 1292.04 82.01 1302.4 82.01 1302.4 79.42 1294.93 79.42 1294.93 75.61 1301.48 75.61 1301.48 73.26 1294.93 73.26 1294.93 70.13 1302.4 70.13"/>
        <polygon class="cls-3" points="1290.38 36.26 1287.5 36.26 1287.5 41.73 1281.83 41.73 1281.83 36.26 1278.95 36.26 1278.95 50.48 1281.83 50.48 1281.83 44.13 1287.5 44.13 1287.5 50.48 1290.38 50.48 1290.38 36.26"/>
        <polygon class="cls-3" points="1266.53 36.26 1266.53 38.85 1270.93 38.85 1270.93 50.48 1273.81 50.48 1273.81 38.85 1278.21 38.85 1278.21 36.26 1266.53 36.26"/>
        <g class="cls-8">
          <g>
            <path class="cls-3" d="M1257.44,51.56c-4.55,0-6.94,2.59-6.94,7.48,0,5.13,2.39,7.67,6.94,7.67s6.89-2.54,6.89-7.67c0-4.89-2.34-7.48-6.89-7.48M1253.65,59c0-3.28,1.27-4.89,3.81-4.89,2.74,0,4,1.61,4,4.89,0,3.47-1.27,5.13-4,5.13-2.56,0-3.81-1.67-3.81-5.13"/>
            <polygon class="cls-3" points="1246.35 51.95 1246.35 61.97 1240.68 51.95 1237.6 51.95 1237.6 66.12 1240.33 66.12 1240.33 56.15 1246.15 66.12 1249.23 66.12 1249.23 51.95 1246.35 51.95"/>
            <polygon class="cls-3" points="1259.79 73.45 1259.79 70.13 1267.07 70.13 1267.07 67.59 1256.9 67.59 1256.9 82.01 1259.79 82.01 1259.79 76 1266.19 76 1266.19 73.45 1259.79 73.45"/>
            <polygon class="cls-3" points="1289.84 54.49 1289.84 51.95 1278.21 51.95 1278.21 54.49 1282.56 54.49 1282.56 66.12 1285.49 66.12 1285.49 54.49 1289.84 54.49"/>
            <path class="cls-3" d="M1271.81,60.7a2.7,2.7,0,0,1,2,.54l.54,4.88h3.3v-.34c-.35-.19-.54-1.07-.54-2.74,0-2-.74-3.07-1.81-3.61a3.31,3.31,0,0,0,2.2-3.47c0-2.54-1.47-4-4.55-4h-7.15V66.12h2.93V60.7Zm-3.08-2.4V54.5h3.62c1.46,0,2.2.54,2.2,1.81s-.74,2-2.35,2Z"/>
            <path class="cls-3" d="M1273.81,67.59h-3.47L1265.26,82h3.08l1.12-3.13h5.28l.91,3.13h3.1ZM1272,70.87l1.81,5.63h-3.61Z"/>
            <path class="cls-3" d="M1288,72.33h2.88a5.41,5.41,0,0,0-1.42-3.27,7,7,0,0,0-4.74-1.81,6.35,6.35,0,0,0-4.74,2,8.29,8.29,0,0,0-1.81,5.48c0,5.08,2.15,7.62,6.36,7.62,3.66,0,5.66-1.81,6.35-5.28H1288a3.18,3.18,0,0,1-3.28,2.54c-2.39,0-3.47-1.61-3.47-4.74,0-3.42,1.08-5.08,3.47-5.08,1.61,0,2.54.93,3.28,2.54"/>
            <path class="cls-3" d="M1251.77,81.81m0,0h0a1.79,1.79,0,0,0,1.17-.44,1.77,1.77,0,0,0,.44-1.22,1.62,1.62,0,0,0-.44-1.22,1.75,1.75,0,0,0-1.12-.43h0a1.4,1.4,0,0,0-1.61,1.15,1.77,1.77,0,0,0,0,.46h0a1.83,1.83,0,0,0,.39,1.17,1.62,1.62,0,0,0,1.22.44Zm0,.39h0a2.1,2.1,0,0,1-1.52-.58,2,2,0,0,1-.48-1.42h0a1.74,1.74,0,0,1,2-2h0a1.89,1.89,0,0,1,1.42.49,2.07,2.07,0,0,1-1.42,3.51ZM1252,80h0c.2,0,.3-.1.3-.35h-.83v.49Zm.34.34.39.49a.21.21,0,0,1,0,.24.21.21,0,0,1-.29,0l-.49-.68h-.44v.53a.22.22,0,0,1-.2.2.22.22,0,0,1-.19-.2V79.27a.21.21,0,0,1,.19-.19h.78a.66.66,0,0,1,.49.14s.1,0,.1.1a.32.32,0,0,1,.1.29c0,.39-.1.59-.39.69"/>
            <path class="cls-3" d="M1304.41,36.26a32,32,0,0,1,23.31,9.68,32,32,0,0,1,9.83,23.56V82h-13.3V69a17.73,17.73,0,0,0-5.47-13.1,17.06,17.06,0,0,0-2.89-2.4,17.55,17.55,0,0,0-10-2.88h-1.47ZM1323,82h-10.33V72a5.22,5.22,0,0,0-1.66-4,5.51,5.51,0,0,0-4-1.66h-2.54V52h1.47a16.09,16.09,0,0,1,10,3.28,7.78,7.78,0,0,1,2,1.61A16.47,16.47,0,0,1,1323,69.06Zm-11.63,0h-6.94V67.59H1307a4.34,4.34,0,0,1,4.4,4.28V82Z"/>
          </g>
        </g>
      </g>
    </g>
  </g>
  <rect class="cls-1" x="1594.15" width="151.09" height="120"/>
  <path class="cls-2" d="M1714.28,74.87c-2.21-1.44-3.27-.72-3.27-.72a4.57,4.57,0,0,0,1.7,3.1,5.82,5.82,0,0,0,3.82,1.25A4.87,4.87,0,0,0,1714.28,74.87Zm-32.73,8.49a6.4,6.4,0,0,0-.85,4.88s1.78.51,4-2.42a6.58,6.58,0,0,0,1.32-5.77,7.71,7.71,0,0,0-4.5,3.31Zm-6.9-6.67a4.57,4.57,0,0,0-1.7,3.1s1.11.73,3.27-.72a4.72,4.72,0,0,0,2.27-3.57A5.56,5.56,0,0,0,1674.65,76.69Zm20.23,5.81a6.16,6.16,0,0,0-2,4.29,7.36,7.36,0,0,0,1.74,5,6.2,6.2,0,0,0,2.08-5.22c-.12-3.57-1.82-4.12-1.82-4.12Zm11.93,0a4.62,4.62,0,0,0,.59,3.48,5.69,5.69,0,0,0,3.25,2.35,4.76,4.76,0,0,0-1-4.12c-1.61-2.08-2.84-1.74-2.84-1.74Zm7.47-40.33a4.73,4.73,0,0,0,2.25-3.67,5.58,5.58,0,0,0-3.82,1.23,4.57,4.57,0,0,0-1.7,3.1s1.06.72,3.27-.72ZM1675.9,45a4.81,4.81,0,0,0-2.25-3.61c-2.21-1.44-3.27-.72-3.27-.72a4.57,4.57,0,0,0,1.7,3.1A5.46,5.46,0,0,0,1675.9,45Zm7.22-7.94a4.74,4.74,0,0,0-1-4.11c-1.61-2.08-2.88-1.74-2.88-1.74a4.62,4.62,0,0,0,.59,3.48,5.68,5.68,0,0,0,3.27,2.37Zm24.71-2.58a6.4,6.4,0,0,0,1.31-5.69,7.66,7.66,0,0,0-4.49,3.31,6.12,6.12,0,0,0-.81,4.84S1705.65,37.42,1707.83,34.5ZM1694.5,32a6,6,0,0,0-2-4.84,6.91,6.91,0,0,0-1.61,4.67,5.6,5.6,0,0,0,1.87,3.91s1.57-.51,1.7-3.74Z"/>
  <path class="cls-2" d="M1695.09,41.84a16.9,16.9,0,1,0,16.9,16.9,16.9,16.9,0,0,0-16.9-16.9Zm0,31.84a15,15,0,1,1,14.9-15v.06A14.93,14.93,0,0,1,1695.09,73.68Z"/>
  <path class="cls-2" d="M1657,75.38l-5-20.88,9-2.12.76,3.12-5.81,1.4,1.35,5.69,4.25-1,.76,3.18-4.24,1,1.36,5.73,5.81-1.4.77,3.19-9,2.12Zm15.49-3.06a5,5,0,0,1-5.89-4.13l-1.92-11.62a5.08,5.08,0,0,1,.85-3.82,4.87,4.87,0,0,1,3.31-2.08,5.07,5.07,0,0,1,3.82.85,4.82,4.82,0,0,1,2,3.31l.42,2.42-3.31.55-.42-2.5a1.89,1.89,0,0,0-.77-1.23,1.63,1.63,0,0,0-1.4-.34,1.76,1.76,0,0,0-1.19.76,2,2,0,0,0-.34,1.4l2,11.68a1.91,1.91,0,0,0,.72,1.19,2,2,0,0,0,1.36.33,2,2,0,0,0,1.23-.72,1.56,1.56,0,0,0,.34-1.36l-.51-2.92,3.35-.59.54,3a5,5,0,0,1-.85,3.82A5.22,5.22,0,0,1,1672.46,72.32ZM1723.79,67a5.67,5.67,0,0,1-1.74,3.61,4.29,4.29,0,0,1-2.4,1.19,5.62,5.62,0,0,1-1.83,0,4.9,4.9,0,0,1-4.28-3.74,7.55,7.55,0,0,1-.22-3.1l3.1.21A4.52,4.52,0,0,0,1717,68a1.72,1.72,0,0,0,1.23.81,2,2,0,0,0,1.82-.77,2.29,2.29,0,0,0,.56-1.36,4.08,4.08,0,0,0-.81-2.84c-.55-.68-1.36-1.74-2.42-3.14a14.21,14.21,0,0,1-1.83-3.1,6.52,6.52,0,0,1-.25-3.1,5.37,5.37,0,0,1,2.63-4.12,5,5,0,0,1,3.1-.47,5.63,5.63,0,0,1,2.85,1.23,4.27,4.27,0,0,1,1.27,1.91,6.33,6.33,0,0,1,.34,2.55l-3.14.09a3.33,3.33,0,0,0-.47-2.13,1.49,1.49,0,0,0-1.19-.72,1.4,1.4,0,0,0-1.44.6,2.77,2.77,0,0,0-.6,1.48,4.91,4.91,0,0,0,.81,3.14,12.18,12.18,0,0,0,1.17,1.58,9.1,9.1,0,0,1,1.27,1.57,10,10,0,0,1,1.45,2.59c.13.42.25.72.34,1.1a10.33,10.33,0,0,1,0,2.08Zm3.86,6.37-3.18-.64,4.33-21.05,3.18.63Zm6.79-3.52-2,4.58-3.27-.81L1738,53.73l4.33,1.1-1.89,21.67-3.27-.84.51-5ZM1739,59l-3.27,7.89,2.34.6L1739,59Z"/>
  <path class="cls-2" d="M1695.85,55.43l-.24-.24.12.12a8.08,8.08,0,0,1-1.19-1l-.24-.12h0l-.12-.12c.12-.24.24-.24.36-.36.6.12.72.48,1.19.72.24,0,.36.12.6.12a3,3,0,0,0,.71.47c.24.12.6.12.84.24v.36a.39.39,0,0,0-.24.12,1.24,1.24,0,0,1-.71-.24A3.25,3.25,0,0,0,1695.85,55.43Z"/>
  <path class="cls-2" d="M1707.05,60.43a3.31,3.31,0,0,0-1-1.54,1.45,1.45,0,0,0-1.55,1c-.12.23,0,.47-.12.59s-.12.12-.24.12c-1-.83-.47-2.26-1.9-3-.12,0-.24.12-.36.12l-.6.6c-.36.24-.83.36-1.19.6a.52.52,0,0,0-.07.25c0,.31.21.68-.16,1-.48.6-1.32.83-1.56,1.56V63a4.66,4.66,0,0,1-.83.83c-.71.85-1,2-2.27,2.15-1.07,0-1.42-2.26-1.42-3s.47-1.18.24-2c-.12-.47-.24-1.54-.84-1.78s-1.55.12-2.14-.35a2.68,2.68,0,0,1-.24-3.1l1.19-1.2c.23-.36.12-.83.23-1.19s.73-.35,1-.71c0-.59-.47-.59-.35-1.2a.65.65,0,0,1,.59-.35c.36.12.48.47,1,.59.6-.24.24-.59.48-1.07a3.48,3.48,0,0,1,1.55-.95c1.19-.24,1.78.71,3.1.71a20.69,20.69,0,0,0,3.93-.47h.83a12.69,12.69,0,0,0-14.17-2.74,5.53,5.53,0,0,0,1.9.12c.23.12.47.12.72.23.36.6-.6,1.44-1.2,1.56s-1,.12-1.42.24a4.51,4.51,0,0,1-1.44.47c-.24-.12-.24-.24-.35-.47a1.32,1.32,0,0,1,.23-1c0-.12-.12-.24-.23-.36a13.55,13.55,0,0,0-2,1.55v.12c0,.48.6,1.19.12,1.55s-.6-.12-1,0a1.51,1.51,0,0,1-.71.47.8.8,0,0,0-.47.13,11.58,11.58,0,0,0-1.79,4.88,4.37,4.37,0,0,1,2,1.32l.72,1.06c.47.48,1.43.6,1.67,1.31.12.48-.36.84-.6,1.2a4.31,4.31,0,0,0-.36.83c-.12.24-.83.47-1.07.83s-.36.59-.59,1l-.36.36A12.69,12.69,0,0,0,1695,71.27a12.49,12.49,0,0,0,11.79-8.46c.24-.36,0-.72,0-1.07S1707.17,60.91,1707.05,60.43Zm-8.46,4.65c-.24-.12-.24-.24-.36-.35a1.35,1.35,0,0,1,.84-1.2h.24C1699.65,64,1699.07,64.84,1698.59,65.08Z"/>
  <rect class="cls-1" x="1389.15" width="205" height="120"/>
  <g class="cls-9">
    <g class="cls-10">
      <g class="cls-10">
        <g>
          <path class="cls-3" d="M1506.83,37.81c2.54-1.27,3.84-1.08,3.87.19a45.43,45.43,0,0,1-.39,5.47c-1,8.67-2.54,15.73-2.67,24.66,4.2-10.88,7.69-18.37,12.22-27.65,1.43-3,2.37-2.41,3.55-3,4.59-2,4.75-.78,4.13,1.76-2.21,9.26-7.89,38.4-8.76,42.86-.26,1.3-1.69.78-2,.26-1.69-2.25-3.52-2.28-3.32-3.81,1-7.43,4.75-26.22,5.7-30.65-4.92,10-10,22.64-12.6,29.74-.56,1.49-1.57,1.4-2.19.29-.91-1.6-2.6-2.38-2.86-4.2-.91-5.83,1-17,1.27-24-2.66,7.65-7.13,22.63-9.13,29.37-.81,2.8-3.52,2.31-2.8-.36,3-11.36,9.41-31.39,12.18-38.59.65-1.73,2.38-1.63,3.78-2.34"/>
          <path class="cls-3" d="M1490.65,36.41c-.88-.2-3.42,1.17-5,1.4a1.89,1.89,0,0,0-1.11,1c-2.48,5.69-4.69,11.1-6.58,16-2.47.45-5.34,1-8.53,1.69,2.31-5.86,4.62-11.69,6.87-17.26,1.11-2.8-1.82-3.06-3-.26-1.47,3.61-4.24,10.42-7.3,18.33-2.25.56-4.69,1.18-7.16,1.93-1.83.48-1.89,1-1.11,2.08.46.59,1.3.52,1.73,1,1.07,1.1,1.72,2.44,3.64,2.63-1.76,4.56-3.45,9.22-5,13.68-1,2.84,1.79,3.42,2.84.43q2.61-7.22,5.41-14.56c1.53-.33,5.21-1.11,8.63-1.89-2.71,7.47-4.46,13.1-5.18,15.89a1.41,1.41,0,0,0,.23,1c.88,1.31,1.79,1.37,3,3a1,1,0,0,0,1.41.16,1,1,0,0,0,.35-.58c2.51-7.62,5-14.72,7.46-21.1a6.26,6.26,0,0,0,3.94-2.32c2-2.93,2.51-2.34,3-3.22.58-1.14.16-2.15-1.92-1.92,0,0-.79.06-2.28.23,2.34-6,4.42-11,5.86-14.89.49-1.33.55-2.31-.23-2.5"/>
          <path class="cls-3" d="M1488.32,73.42c.34-.43.65-.88.92-1.29,1.24-1.82,0-2.9-1.24-1.82-.18.17-.37.35-.55.54-.21-.65-.43-1.34-.62-2a23.15,23.15,0,0,0,1.63-2.2,2.35,2.35,0,1,0-3.68-2.93,3.1,3.1,0,0,0-.42,3.1c.07.28.19.69.34,1.18-.49.51-1.07,1.14-1.84,2-2,2.28-1.44,5.22.65,5.86a3.63,3.63,0,0,0,3.47-1.08l.15.37c.55,1.36,2.28.94,1.59-.72-.11-.28-.25-.66-.4-1.09m-2.83-2.87c.17.53.35,1.09.53,1.62a4.45,4.45,0,0,1-.69.52c-.8.46-1.4,0-.35-1.44l.51-.7m.65-4a3.31,3.31,0,0,1-.12-.42c-.59-2.18,1.91-1.6.65-.16-.18.2-.34.4-.53.58"/>
        </g>
      </g>
    </g>
  </g>
</svg>
